<?xml version="1.0" encoding="utf-8"?>
<svg viewBox="0 0 32 32" width="32" height="32" xmlns="http://www.w3.org/2000/svg">
  <rect width="32" height="32" fill="#51b4a9"/>
  <path fill="#2d3f46" d="M 7.051 17.921 L 7.408 17.921 L 10.616 27.934 L 14.752 27.934 L 14.752 14.275 C 15.155 13.262 15.357 12.04 15.357 10.606 C 15.357 7.875 14.695 5.998 13.371 4.973 C 12.048 3.949 10.292 3.437 8.104 3.437 L 4.447 3.437 L 4.447 13.246 L 4.444 13.246 L 4.444 27.934 L 7.333 27.934 L 7.333 22.402 C 7.333 21.286 7.285 20.23 7.188 19.234 C 7.146 18.803 7.1 18.366 7.051 17.921 Z M 7.874 13.246 L 7.874 5.924 L 8.606 5.924 C 9.637 5.924 10.431 6.255 10.988 6.917 C 11.545 7.579 11.824 8.809 11.824 10.606 C 11.824 12.389 11.549 13.64 10.999 14.358 C 10.59 14.891 10.045 15.226 9.363 15.363 L 8.705 13.246 Z M 10.117 17.788 C 10.758 17.683 11.34 17.518 11.863 17.291 L 11.863 18.862 C 11.863 20.784 12.029 22.833 12.362 25.009 Z M 20.653 25.157 L 25.869 17.921 L 28.69 17.921 L 27.344 13.521 L 27.344 13.246 L 27.26 13.246 L 24.259 3.437 L 20.1 3.437 L 15.669 17.921 L 19.264 17.921 L 19.74 15.938 L 23.479 15.938 L 16.643 25.327 L 16.643 27.934 L 27.158 27.934 L 27.511 25.157 Z M 20.56 12.32 L 22.128 5.904 L 23.695 12.32 Z"/>
</svg>
